<?xml version="1.0" encoding="utf-8"?>
<!-- Generator: Adobe Illustrator 24.0.2, SVG Export Plug-In . SVG Version: 6.00 Build 0)  -->
<svg version="1.1" id="图层_1" xmlns="http://www.w3.org/2000/svg" xmlns:xlink="http://www.w3.org/1999/xlink" x="0px" y="0px"
	 viewBox="0 0 364.86 363" style="enable-background:new 0 0 364.86 363;" xml:space="preserve">
<style type="text/css">
	.st0{fill:#F4D3B9;}
	.st1{fill:#EAC2A6;}
	.st2{fill:#DB535E;}
	.st3{fill:#FFFFFF;}
	.st4{fill:#C9CACA;}
	.st5{fill:#030035;}
	.st6{fill:#C30D23;}
	.st7{fill:#CB4323;}
</style>
<g>
	<ellipse class="st0" cx="53.82" cy="193.24" rx="37.33" ry="33.85"/>
	<ellipse class="st1" cx="58.82" cy="194.99" rx="21.76" ry="24.53"/>
</g>
<g>
	<ellipse class="st0" cx="303.64" cy="198.24" rx="37.33" ry="33.85"/>
	<ellipse class="st1" cx="298.64" cy="199.99" rx="21.76" ry="24.53"/>
</g>
<path class="st0" d="M207.02,306.01h-58.71c-49.88,0-90.7-40.81-90.7-90.7v-17.86c0-49.88,40.81-90.7,90.7-90.7h58.71
	c49.88,0,90.7,40.81,90.7,90.7v17.86C297.72,265.2,256.91,306.01,207.02,306.01z"/>
<g>
	<path class="st1" d="M278.51,158.11L118.7,120.13c-12.16-2.89-19.75-15.21-16.86-27.37l0,0c2.89-12.16,15.21-19.75,27.37-16.86
		l159.81,37.98c12.16,2.89,19.75,15.21,16.86,27.37v0C303,153.42,290.68,161,278.51,158.11z"/>
</g>
<circle class="st2" cx="84.71" cy="237" r="27.09"/>
<g>
	<ellipse transform="matrix(0.3907 -0.9205 0.9205 0.3907 -104.3504 200.3584)" cx="99.18" cy="179.01" rx="7.18" ry="21.75"/>
	<ellipse transform="matrix(0.9479 -0.3184 0.3184 0.9479 -47.236 40.6853)" cx="100.82" cy="164.82" rx="5.5" ry="20.31"/>
	<ellipse cx="121.39" cy="160.81" rx="5" ry="17.66"/>
	<g>
		<circle class="st3" cx="118.29" cy="191.43" r="32.7"/>
		<circle cx="118.29" cy="191.43" r="19.11"/>
		<circle class="st3" cx="125.34" cy="178.47" r="5.77"/>
	</g>
</g>
<circle class="st2" cx="266.33" cy="237" r="27.09"/>
<g>
	<ellipse transform="matrix(0.9205 -0.3907 0.3907 0.9205 -50.3386 113.3336)" cx="253.36" cy="180.38" rx="20.77" ry="6.86"/>
	<ellipse transform="matrix(0.3184 -0.9479 0.9479 0.3184 13.4711 352.3807)" cx="251.79" cy="166.82" rx="19.4" ry="5.25"/>
	<ellipse cx="232.14" cy="162.99" rx="4.77" ry="16.87"/>
	<g>
		<circle class="st3" cx="235.1" cy="192.24" r="31.23"/>
		<circle cx="235.1" cy="192.24" r="18.26"/>
		<circle class="st3" cx="228.37" cy="179.86" r="5.51"/>
	</g>
</g>
<g>
	<path class="st3" d="M218.72,238.62c1.49,12.15-10.04,23.56-25.75,25.49s-29.66-6.35-31.15-18.5"/>
	<path class="st4" d="M205.54,259.5L205.54,259.5c-1.56,0.76-3.45,0.11-4.21-1.45l-4.95-10.14c-0.76-1.56-0.11-3.45,1.45-4.21l0,0
		c1.56-0.76,3.45-0.11,4.21,1.45l4.95,10.14C207.75,256.85,207.09,258.74,205.54,259.5z"/>
	<path class="st4" d="M181.19,264.98L181.19,264.98c-1.69,0.39-3.38-0.67-3.77-2.36l-3.57-15.48c-0.39-1.69,0.67-3.38,2.36-3.77h0
		c1.69-0.39,3.38,0.67,3.77,2.36l3.57,15.48C183.94,262.89,182.88,264.59,181.19,264.98z"/>
</g>
<path class="st1" d="M179.47,237L179.47,237c-4.84,0-8.8-3.96-8.8-8.8v-82.66c0-4.84,3.96-8.8,8.8-8.8h0c4.84,0,8.8,3.96,8.8,8.8
	v82.66C188.27,233.04,184.31,237,179.47,237z"/>
<path class="st1" d="M207.81,272.71l-15.03,3.47c-2.14,0.49-4.3-0.85-4.8-3v0c-0.49-2.14,0.85-4.3,3-4.8l15.03-3.47
	c2.14-0.49,4.3,0.85,4.8,3l0,0C211.3,270.05,209.95,272.21,207.81,272.71z"/>
<ellipse transform="matrix(0.8988 -0.4384 0.4384 0.8988 -39.3714 144.2044)" class="st5" cx="292.62" cy="157.37" rx="10.13" ry="23.43"/>
<ellipse transform="matrix(0.9839 -0.1789 0.1789 0.9839 -25.2224 53.9233)" class="st5" cx="286.4" cy="166.82" rx="8.52" ry="22.41"/>
<ellipse transform="matrix(0.2312 -0.9729 0.9729 0.2312 -81.6657 186.2324)" class="st5" cx="77.01" cy="144.79" rx="20.78" ry="8.74"/>
<path class="st6" d="M315.5,151.9H145.65c-12.92,0-23.5-10.57-23.5-23.5v-6.09c0-12.92,10.57-23.5,23.5-23.5H315.5
	c12.92,0,23.5,10.57,23.5,23.5v6.09C339,141.32,328.43,151.9,315.5,151.9z"/>
<ellipse transform="matrix(0.4216 -0.9068 0.9068 0.4216 -89.4687 139.0321)" class="st5" cx="64.25" cy="139.65" rx="22.49" ry="9.77"/>
<path class="st6" d="M176.07,42.77c60.42,0.38,109.17,35.63,108.9,78.72s-219.06,41.7-218.78-1.39
	C66.46,77.01,115.66,42.38,176.07,42.77z"/>
<g>
	<ellipse class="st5" cx="178.68" cy="123.38" rx="9.9" ry="17.37"/>
	
		<ellipse transform="matrix(0.3907 -0.9205 0.9205 0.3907 0.4596 257.1738)" class="st5" cx="194.5" cy="128.24" rx="17.37" ry="9.9"/>
	<ellipse transform="matrix(0.866 -0.5 0.5 0.866 -42.4596 98.0182)" class="st5" cx="161.67" cy="128.24" rx="9.9" ry="17.37"/>
</g>
<rect x="153.92" y="140.42" class="st6" width="43.32" height="5.5"/>
<path class="st7" d="M306.67,144.74h-14.09c-4.4,0-8-3.6-8-8v0c0-4.4,3.6-8,8-8h14.09c4.4,0,8,3.6,8,8v0
	C314.67,141.14,311.07,144.74,306.67,144.74z"/>
</svg>
